<svg width="24" height="24" viewBox="0 0 24 24" fill="none" xmlns="http://www.w3.org/2000/svg">
<path d="M17 4H7C4 4 2 5.5 2 9V12.56C2 12.93 2.38 13.16 2.71 13.01C3.69 12.56 4.82 12.39 6.01 12.6C8.64 13.07 10.57 15.51 10.5 18.18C10.49 18.6 10.43 19.01 10.32 19.41C10.24 19.72 10.49 20.01 10.81 20.01H17C20 20.01 22 18.51 22 15.01V9C22 5.5 20 4 17 4ZM12 14.5C11.337 14.5 10.7011 14.2366 10.2322 13.7678C9.76339 13.2989 9.5 12.663 9.5 12C9.5 11.337 9.76339 10.7011 10.2322 10.2322C10.7011 9.76339 11.337 9.5 12 9.5C12.663 9.5 13.2989 9.76339 13.7678 10.2322C14.2366 10.7011 14.5 11.337 14.5 12C14.5 12.663 14.2366 13.2989 13.7678 13.7678C13.2989 14.2366 12.663 14.5 12 14.5ZM19.25 14C19.25 14.41 18.91 14.75 18.5 14.75C18.09 14.75 17.75 14.41 17.75 14V10C17.75 9.59 18.09 9.25 18.5 9.25C18.91 9.25 19.25 9.59 19.25 10V14Z" fill="#111827"/>
<path d="M5.00001 14C3.75001 14 2.62001 14.59 1.89001 15.49C1.31247 16.1988 0.998013 17.0857 1.00001 18C1.00001 20.21 2.80001 22 5.00001 22C6.74001 22 8.23001 20.89 8.77001 19.33C8.92001 18.92 9.00001 18.47 9.00001 18C9.00001 15.8 7.21001 14 5.00001 14ZM7.36001 19.74C7.34001 19.8 7.30001 19.86 7.26001 19.9L6.54001 20.61C6.45001 20.71 6.33001 20.75 6.20001 20.75C6.13509 20.7527 6.07034 20.7416 6.01001 20.7175C5.94968 20.6934 5.89515 20.6567 5.85001 20.61C5.77553 20.5372 5.72729 20.4418 5.71281 20.3386C5.69834 20.2355 5.71845 20.1305 5.77001 20.04H3.76001C3.12001 20.04 2.60001 19.52 2.60001 18.87V18.77C2.60001 18.49 2.82001 18.28 3.09001 18.28C3.36001 18.28 3.58001 18.49 3.58001 18.77V18.87C3.58001 18.98 3.66001 19.07 3.77001 19.07H5.78001C5.68001 18.88 5.70001 18.65 5.86001 18.49C6.05001 18.3 6.36001 18.3 6.54001 18.49L7.26001 19.21C7.30001 19.25 7.34001 19.31 7.37001 19.37C7.41001 19.48 7.41001 19.62 7.36001 19.74ZM7.40001 17.23C7.40001 17.51 7.18001 17.72 6.91001 17.72C6.64001 17.72 6.42001 17.51 6.42001 17.23V17.13C6.42001 17.02 6.34001 16.93 6.23001 16.93H4.23001C4.2718 17.0042 4.29324 17.0881 4.29216 17.1732C4.29109 17.2583 4.26753 17.3417 4.22388 17.4147C4.18023 17.4878 4.11803 17.5481 4.0436 17.5894C3.96916 17.6307 3.88513 17.6516 3.80001 17.65C3.68001 17.65 3.55001 17.6 3.46001 17.51L2.74001 16.79C2.69548 16.7425 2.65839 16.6886 2.63001 16.63C2.58998 16.5099 2.58998 16.3801 2.63001 16.26C2.66001 16.21 2.69001 16.14 2.74001 16.1L3.46001 15.39C3.65001 15.19 3.96001 15.19 4.14001 15.39C4.30001 15.54 4.32001 15.78 4.22001 15.96H6.23001C6.87001 15.96 7.39001 16.48 7.39001 17.13V17.23H7.40001Z" fill="#111827"/>
</svg>
