<svg width="20" height="20" viewBox="0 0 20 20" fill="none" xmlns="http://www.w3.org/2000/svg">
<path d="M4.19966 0.849732C4.03848 0.849818 3.88029 0.893183 3.74161 0.975297C3.60292 1.05741 3.48883 1.17526 3.41126 1.31653L0.111256 7.31653C0.0242861 7.47479 -0.0130658 7.65555 0.00405475 7.83531C0.0211753 8.01508 0.0919767 8.18554 0.207256 8.32453L8.90726 18.8245C8.99171 18.9264 9.0976 19.0085 9.21738 19.0648C9.33717 19.1211 9.4679 19.1503 9.60026 19.1503C9.73261 19.1503 9.86334 19.1211 9.98313 19.0648C10.1029 19.0085 10.2088 18.9264 10.2933 18.8245L18.9933 8.32453C19.1085 8.18554 19.1793 8.01508 19.1965 7.83531C19.2136 7.65555 19.1762 7.47479 19.0893 7.31653L15.7893 1.31653C15.7116 1.17508 15.5973 1.05712 15.4584 0.974991C15.3195 0.892867 15.161 0.849603 14.9997 0.849732H4.19966ZM2.58686 6.54973L4.73126 2.64973H6.53125L5.16566 6.54973H2.58686ZM4.97246 8.34973L7.28725 14.0473L2.56526 8.34973H4.97246ZM9.58646 14.9269L6.91526 8.34973H12.1785L9.58646 14.9269ZM7.07366 6.54973L8.43805 2.64973H10.7721L12.2085 6.54973H7.07366ZM14.1273 6.54973L12.6909 2.64973H14.4669L16.6125 6.54973H14.1273ZM14.1129 8.34973H16.6329L11.8269 14.1505L14.1129 8.34973Z" fill="white"/>
</svg>
