<svg width="24" height="24" viewBox="0 0 24 24" fill="none" xmlns="http://www.w3.org/2000/svg">
<path d="M6.54363 5.00041C6.46352 4.91867 6.36808 4.85351 6.26278 4.80867C6.15747 4.76382 6.04436 4.74017 5.92992 4.73905C5.81547 4.73794 5.70192 4.75939 5.59576 4.80217C5.4896 4.84496 5.39292 4.90824 5.31123 4.98841C4.38744 5.9073 3.65461 6.99992 3.15497 8.2033C2.65533 9.40667 2.39875 10.697 2.40003 12C2.39867 13.353 2.67534 14.6919 3.21287 15.9335C3.7504 17.1752 4.53733 18.2931 5.52483 19.218C5.69105 19.3717 5.91062 19.4545 6.13692 19.4489C6.36321 19.4433 6.57841 19.3497 6.73683 19.188C7.11603 18.8088 7.06923 18.2052 6.70443 17.856C5.91183 17.1007 5.2811 16.192 4.85057 15.1853C4.42004 14.1786 4.19871 13.0949 4.20003 12C4.20003 9.78481 5.08923 7.77601 6.53163 6.31441C6.87963 5.96041 6.91563 5.37241 6.54363 5.00041ZM8.65683 7.11601C8.49879 6.95339 8.28273 6.86006 8.056 6.85646C7.82926 6.85286 7.61035 6.93929 7.44723 7.09681C6.79781 7.73743 6.28235 8.50088 5.93088 9.34267C5.57941 10.1845 5.39896 11.0878 5.40003 12C5.40003 14.0304 6.27603 15.8556 7.67163 17.118C7.83648 17.2634 8.05094 17.3397 8.27055 17.3312C8.49017 17.3227 8.6981 17.2301 8.85123 17.0724C9.24483 16.6788 9.17163 16.0596 8.80203 15.7116C8.29557 15.2352 7.89212 14.6601 7.61659 14.0217C7.34105 13.3834 7.19929 12.6953 7.20003 12C7.20003 10.62 7.74843 9.36721 8.64003 8.44801C8.98323 8.09521 9.03963 7.49761 8.65683 7.11601ZM15.3432 7.11481C15.5013 6.95219 15.7173 6.85886 15.9441 6.85526C16.1708 6.85166 16.3897 6.93809 16.5528 7.09561C17.2024 7.73638 17.7179 8.50002 18.0694 9.34203C18.4209 10.184 18.6013 11.0876 18.6 12C18.6 14.0304 17.724 15.8556 16.3284 17.118C16.1636 17.2634 15.9491 17.3397 15.7295 17.3312C15.5099 17.3227 15.302 17.2301 15.1488 17.0724C14.7552 16.6788 14.8284 16.0596 15.198 15.7116C15.7045 15.2352 16.1079 14.6601 16.3835 14.0217C16.659 13.3834 16.8008 12.6953 16.8 12C16.8 10.62 16.2516 9.36721 15.36 8.44801C15.0168 8.09521 14.9604 7.49641 15.3432 7.11481ZM17.4564 5.00041C17.5365 4.91867 17.632 4.85351 17.7373 4.80867C17.8426 4.76382 17.9557 4.74017 18.0701 4.73905C18.1846 4.73794 18.2981 4.75939 18.4043 4.80217C18.5105 4.84496 18.6071 4.90824 18.6888 4.98841C19.6126 5.9073 20.3455 6.99992 20.8451 8.2033C21.3447 9.40667 21.6013 10.697 21.6 12C21.6014 13.353 21.3247 14.6919 20.7872 15.9335C20.2497 17.1752 19.4627 18.2931 18.4752 19.218C18.309 19.3717 18.0894 19.4545 17.8631 19.4489C17.6368 19.4433 17.4216 19.3497 17.2632 19.188C16.884 18.8088 16.9308 18.2052 17.2968 17.856C18.0892 17.1005 18.7197 16.1919 19.15 15.1852C19.5804 14.1785 19.8015 13.0948 19.8 12C19.8 9.78481 18.9108 7.77601 17.4684 6.31441C17.1204 5.96041 17.0844 5.37241 17.4564 5.00041ZM12 10.2C11.5226 10.2 11.0648 10.3897 10.7272 10.7272C10.3897 11.0648 10.2 11.5226 10.2 12C10.2 12.4774 10.3897 12.9352 10.7272 13.2728C11.0648 13.6104 11.5226 13.8 12 13.8C12.4774 13.8 12.9353 13.6104 13.2728 13.2728C13.6104 12.9352 13.8 12.4774 13.8 12C13.8 11.5226 13.6104 11.0648 13.2728 10.7272C12.9353 10.3897 12.4774 10.2 12 10.2Z" fill="black"/>
</svg>
