<svg width="20" height="20" viewBox="0 0 20 20" fill="none" xmlns="http://www.w3.org/2000/svg">
<path d="M18.1 7.22097C16.29 7.22097 15.55 5.94097 16.45 4.37097C16.97 3.46097 16.66 2.30097 15.75 1.78097L14.02 0.790974C13.23 0.320974 12.21 0.600974 11.74 1.39097L11.63 1.58097C10.73 3.15097 9.25 3.15097 8.34 1.58097L8.23 1.39097C8.1222 1.20196 7.97789 1.03626 7.80545 0.903539C7.63302 0.770815 7.43591 0.673711 7.2256 0.617875C7.01529 0.56204 6.79597 0.54859 6.58041 0.578307C6.36485 0.608024 6.15736 0.680316 5.97 0.790974L4.24 1.78097C3.33 2.30097 3.02 3.47097 3.54 4.38097C4.45 5.94097 3.71 7.22097 1.9 7.22097C0.86 7.22097 0 8.07097 0 9.12097V10.881C0 11.921 0.85 12.781 1.9 12.781C3.71 12.781 4.45 14.061 3.54 15.631C3.02 16.541 3.33 17.701 4.24 18.221L5.97 19.211C6.76 19.681 7.78 19.401 8.25 18.611L8.36 18.421C9.26 16.851 10.74 16.851 11.65 18.421L11.76 18.611C12.23 19.401 13.25 19.681 14.04 19.211L15.77 18.221C16.68 17.701 16.99 16.531 16.47 15.631C15.56 14.061 16.3 12.781 18.11 12.781C19.15 12.781 20.01 11.931 20.01 10.881V9.12097C20.0048 8.61696 19.8015 8.13522 19.4442 7.77975C19.0868 7.42427 18.604 7.22357 18.1 7.22097ZM10 13.251C8.21 13.251 6.75 11.791 6.75 10.001C6.75 8.21097 8.21 6.75097 10 6.75097C11.79 6.75097 13.25 8.21097 13.25 10.001C13.25 11.791 11.79 13.251 10 13.251Z" fill="#111827"/>
</svg>
