<svg width="23" height="23" viewBox="0 0 23 23" fill="none" xmlns="http://www.w3.org/2000/svg">
<path fill-rule="evenodd" clip-rule="evenodd" d="M5.09933 0.523363C9.35342 0.0523522 13.6465 0.0523522 17.9006 0.523363C20.256 0.787363 22.1562 2.64224 22.4326 5.00586C22.9367 9.32061 22.9367 13.6794 22.4326 17.9941C22.1562 20.3577 20.256 22.2126 17.9006 22.4766C13.6465 22.9476 9.35342 22.9476 5.09933 22.4766C2.74396 22.2126 0.843706 20.3577 0.567331 17.9941C0.0633311 13.6798 0.0633311 9.32153 0.567331 5.00724C0.707124 3.85893 1.2306 2.79149 2.05293 1.9779C2.87525 1.16431 3.94823 0.652261 5.09796 0.524738M11.5 4.63461C11.7735 4.63461 12.0358 4.74326 12.2292 4.93666C12.4226 5.13006 12.5312 5.39236 12.5312 5.66586V10.4687H17.3341C17.6076 10.4687 17.8699 10.5774 18.0633 10.7708C18.2567 10.9642 18.3653 11.2265 18.3653 11.5C18.3653 11.7735 18.2567 12.0358 18.0633 12.2292C17.8699 12.4226 17.6076 12.5312 17.3341 12.5312H12.5312V17.3341C12.5312 17.6076 12.4226 17.8699 12.2292 18.0633C12.0358 18.2567 11.7735 18.3654 11.5 18.3654C11.2265 18.3654 10.9641 18.2567 10.7708 18.0633C10.5774 17.8699 10.4687 17.6076 10.4687 17.3341V12.5312H5.66583C5.39233 12.5312 5.13002 12.4226 4.93663 12.2292C4.74323 12.0358 4.63458 11.7735 4.63458 11.5C4.63458 11.2265 4.74323 10.9642 4.93663 10.7708C5.13002 10.5774 5.39233 10.4687 5.66583 10.4687H10.4687V5.66586C10.4687 5.39236 10.5774 5.13006 10.7708 4.93666C10.9641 4.74326 11.2265 4.63461 11.5 4.63461Z" fill="white"/>
</svg>
