<svg width="27" height="27" viewBox="0 0 27 27" fill="none" xmlns="http://www.w3.org/2000/svg">
<path d="M24.1874 4.49996H21.1874V6.74996C21.1874 6.96665 21.1448 7.1812 21.0618 7.38139C20.9789 7.58158 20.8574 7.76347 20.7042 7.91669C20.551 8.06991 20.3691 8.19145 20.1689 8.27437C19.9687 8.35729 19.7541 8.39996 19.5374 8.39996C19.3208 8.39996 19.1062 8.35729 18.906 8.27437C18.7058 8.19145 18.5239 8.06991 18.3707 7.91669C18.2175 7.76347 18.096 7.58158 18.013 7.38139C17.9301 7.1812 17.8874 6.96665 17.8874 6.74996V4.49996H9.14995V6.74996C9.14995 7.18757 8.97611 7.60726 8.66667 7.91669C8.35724 8.22613 7.93756 8.39996 7.49995 8.39996C7.06234 8.39996 6.64266 8.22613 6.33322 7.91669C6.02379 7.60726 5.84995 7.18757 5.84995 6.74996V4.49996H2.84995C2.67147 4.49793 2.49439 4.53171 2.32919 4.59931C2.16399 4.66691 2.01402 4.76695 1.88816 4.89351C1.76229 5.02007 1.66309 5.17059 1.59641 5.33616C1.52973 5.50173 1.49693 5.679 1.49995 5.85746V22.6425C1.49697 22.8178 1.52856 22.992 1.59291 23.1551C1.65726 23.3182 1.75311 23.467 1.87499 23.5931C1.99688 23.7192 2.1424 23.82 2.30325 23.8898C2.4641 23.9596 2.63713 23.997 2.81245 24H24.1874C24.3628 23.997 24.5358 23.9596 24.6966 23.8898C24.8575 23.82 25.003 23.7192 25.1249 23.5931C25.2468 23.467 25.3426 23.3182 25.407 23.1551C25.4713 22.992 25.5029 22.8178 25.4999 22.6425V5.85746C25.5029 5.68214 25.4713 5.50795 25.407 5.34484C25.3426 5.18173 25.2468 5.03289 25.1249 4.90683C25.003 4.78077 24.8575 4.67996 24.6966 4.61015C24.5358 4.54033 24.3628 4.50289 24.1874 4.49996ZM7.49995 19.5H5.99995V18H7.49995V19.5ZM7.49995 15.75H5.99995V14.25H7.49995V15.75ZM7.49995 12H5.99995V10.5H7.49995V12ZM11.9999 19.5H10.4999V18H11.9999V19.5ZM11.9999 15.75H10.4999V14.25H11.9999V15.75ZM11.9999 12H10.4999V10.5H11.9999V12ZM16.4999 19.5H14.9999V18H16.4999V19.5ZM16.4999 15.75H14.9999V14.25H16.4999V15.75ZM16.4999 12H14.9999V10.5H16.4999V12ZM20.9999 19.5H19.4999V18H20.9999V19.5ZM20.9999 15.75H19.4999V14.25H20.9999V15.75ZM20.9999 12H19.4999V10.5H20.9999V12Z" fill="#C10000"/>
<path d="M7.5 7.5C7.69891 7.5 7.88968 7.42098 8.03033 7.28033C8.17098 7.13968 8.25 6.94891 8.25 6.75V2.25C8.25 2.05109 8.17098 1.86032 8.03033 1.71967C7.88968 1.57902 7.69891 1.5 7.5 1.5C7.30109 1.5 7.11032 1.57902 6.96967 1.71967C6.82902 1.86032 6.75 2.05109 6.75 2.25V6.75C6.75 6.94891 6.82902 7.13968 6.96967 7.28033C7.11032 7.42098 7.30109 7.5 7.5 7.5Z" fill="#C10000"/>
<path d="M19.5 7.5C19.6989 7.5 19.8897 7.42098 20.0303 7.28033C20.171 7.13968 20.25 6.94891 20.25 6.75V2.25C20.25 2.05109 20.171 1.86032 20.0303 1.71967C19.8897 1.57902 19.6989 1.5 19.5 1.5C19.3011 1.5 19.1103 1.57902 18.9697 1.71967C18.829 1.86032 18.75 2.05109 18.75 2.25V6.75C18.75 6.94891 18.829 7.13968 18.9697 7.28033C19.1103 7.42098 19.3011 7.5 19.5 7.5Z" fill="#C10000"/>
</svg>
