<svg width="24" height="24" viewBox="0 0 24 24" fill="none" xmlns="http://www.w3.org/2000/svg">
<rect width="24" height="24" rx="12" fill="#EFFFED"/>
<path d="M10.8334 10.6867C10.8334 11.0467 10.9334 11.1 11.16 11.18L11.5 11.3V10.1667H11.3C11.0467 10.1667 10.8334 10.4 10.8334 10.6867ZM12.5 13.8333H12.7C12.96 13.8333 13.1667 13.6 13.1667 13.3133C13.1667 12.9533 13.0667 12.9 12.84 12.82L12.5 12.7V13.8333Z" fill="#83AD7D"/>
<path d="M17.0534 7.65334L15.6867 9.02C15.5867 9.12 15.46 9.16667 15.3334 9.16667C15.2067 9.16667 15.08 9.12 14.98 9.02C14.8871 8.92591 14.8349 8.79896 14.8349 8.66667C14.8349 8.53438 14.8871 8.40743 14.98 8.31334L16.3467 6.94667C15.1734 5.94667 13.66 5.33334 12 5.33334C8.32004 5.33334 5.33337 8.32 5.33337 12C5.33337 15.68 8.32004 18.6667 12 18.6667C15.68 18.6667 18.6667 15.68 18.6667 12C18.6667 10.34 18.0534 8.82667 17.0534 7.65334ZM13.1667 11.88C13.5934 12.0333 14.1667 12.34 14.1667 13.32C14.1667 14.1533 13.5067 14.84 12.7 14.84H12.5V15.0067C12.5 15.28 12.2734 15.5067 12 15.5067C11.7267 15.5067 11.5 15.28 11.5 15.0067V14.84H11.4467C10.56 14.84 9.83337 14.0933 9.83337 13.1733C9.83337 12.8933 10.06 12.6667 10.3334 12.6667C10.6067 12.6667 10.8334 12.8933 10.8334 13.1667C10.8334 13.5333 11.1067 13.8333 11.4467 13.8333H11.5V12.3533L10.8334 12.12C10.4067 11.9667 9.83337 11.66 9.83337 10.68C9.83337 9.84667 10.4934 9.16 11.3 9.16H11.5V9C11.5 8.72667 11.7267 8.5 12 8.5C12.2734 8.5 12.5 8.72667 12.5 9V9.16667H12.5534C13.44 9.16667 14.1667 9.91334 14.1667 10.8333C14.1667 11.1067 13.94 11.3333 13.6667 11.3333C13.3934 11.3333 13.1667 11.1067 13.1667 10.8333C13.1667 10.4667 12.8934 10.1667 12.5534 10.1667H12.5V11.6467L13.1667 11.88ZM19.1267 5.14C19.074 5.01723 18.9761 4.91939 18.8534 4.86667C18.7934 4.84537 18.7303 4.83411 18.6667 4.83334H16C15.7267 4.83334 15.5 5.06 15.5 5.33334C15.5 5.60667 15.7267 5.83334 16 5.83334H17.46L16.3467 6.94667C16.6 7.16667 16.8334 7.4 17.0534 7.65334L18.1667 6.54V8C18.1667 8.27334 18.3934 8.5 18.6667 8.5C18.94 8.5 19.1667 8.27334 19.1667 8V5.33334C19.1667 5.26667 19.1534 5.20667 19.1267 5.14Z" fill="#83AD7D"/>
</svg>
