<svg width="33" height="33" viewBox="0 0 33 33" fill="none" xmlns="http://www.w3.org/2000/svg">
<path d="M16.5 28.875C13.6125 28.875 11.0573 27.9987 8.83438 26.246C6.61146 24.4933 5.16771 22.253 4.50313 19.525C4.41146 19.1812 4.48021 18.8664 4.70937 18.5804C4.93854 18.2944 5.24792 18.128 5.6375 18.0812C6.00417 18.0354 6.33646 18.1042 6.63437 18.2875C6.93229 18.4708 7.13854 18.7458 7.25313 19.1125C7.80313 21.175 8.9375 22.8594 10.6562 24.1656C12.375 25.4719 14.3229 26.125 16.5 26.125C19.1812 26.125 21.456 25.1914 23.3241 23.3241C25.1923 21.4569 26.1259 19.1822 26.125 16.5C26.1241 13.8178 25.1905 11.5436 23.3241 9.67725C21.4578 7.81092 19.1831 6.87683 16.5 6.875C14.9187 6.875 13.4406 7.24167 12.0656 7.975C10.6906 8.70833 9.53333 9.71667 8.59375 11H11C11.3896 11 11.7164 11.132 11.9804 11.396C12.2444 11.66 12.3759 11.9863 12.375 12.375C12.3741 12.7637 12.2421 13.0905 11.979 13.3554C11.7159 13.6203 11.3896 13.7518 11 13.75H5.5C5.11042 13.75 4.78408 13.618 4.521 13.354C4.25792 13.09 4.12592 12.7637 4.125 12.375V6.875C4.125 6.48542 4.257 6.15908 4.521 5.896C4.785 5.63292 5.11133 5.50092 5.5 5.5C5.88867 5.49908 6.21546 5.63108 6.48037 5.896C6.74529 6.16092 6.87683 6.48725 6.875 6.875V8.73125C8.04375 7.26458 9.47054 6.13021 11.1554 5.32812C12.8402 4.52604 14.6217 4.125 16.5 4.125C18.2188 4.125 19.8289 4.45179 21.3304 5.10538C22.8319 5.75896 24.1381 6.64079 25.2491 7.75087C26.3601 8.86096 27.2424 10.1672 27.896 11.6696C28.5496 13.172 28.8759 14.7822 28.875 16.5C28.8741 18.2178 28.5478 19.828 27.896 21.3304C27.2442 22.8328 26.362 24.139 25.2491 25.2491C24.1363 26.3592 22.83 27.2415 21.3304 27.896C19.8307 28.5505 18.2206 28.8768 16.5 28.875ZM17.875 15.95L21.3125 19.3875C21.5646 19.6396 21.6906 19.9604 21.6906 20.35C21.6906 20.7396 21.5646 21.0604 21.3125 21.3125C21.0604 21.5646 20.7396 21.6906 20.35 21.6906C19.9604 21.6906 19.6396 21.5646 19.3875 21.3125L15.5375 17.4625C15.4 17.325 15.2969 17.1705 15.2281 16.9991C15.1594 16.8277 15.125 16.6499 15.125 16.4656V11C15.125 10.6104 15.257 10.2841 15.521 10.021C15.785 9.75792 16.1113 9.62592 16.5 9.625C16.8887 9.62408 17.2155 9.75608 17.4804 10.021C17.7453 10.2859 17.8768 10.6122 17.875 11V15.95Z" fill="white"/>
</svg>
