<svg width="24" height="24" viewBox="0 0 24 24" fill="none" xmlns="http://www.w3.org/2000/svg">
<rect width="24" height="24" rx="12" fill="#FFF7F1"/>
<path d="M14.7934 5.33334H9.20671C6.78004 5.33334 5.33337 6.78 5.33337 9.20667V14.7867C5.33337 17.22 6.78004 18.6667 9.20671 18.6667H14.7867C17.2134 18.6667 18.66 17.22 18.66 14.7933V9.20667C18.6667 6.78 17.22 5.33334 14.7934 5.33334ZM15.9 13.4C15.8734 13.46 15.84 13.5133 15.7934 13.56L13.7667 15.5867C13.6667 15.6867 13.54 15.7333 13.4134 15.7333C13.2867 15.7333 13.16 15.6867 13.06 15.5867C12.9671 15.4926 12.9149 15.3656 12.9149 15.2333C12.9149 15.101 12.9671 14.9741 13.06 14.88L14.2334 13.7067H8.56671C8.29337 13.7067 8.06671 13.48 8.06671 13.2067C8.06671 12.9333 8.29337 12.7067 8.56671 12.7067H15.44C15.5067 12.7067 15.5667 12.72 15.6334 12.7467C15.7534 12.8 15.8534 12.8933 15.9067 13.02C15.9467 13.14 15.9467 13.28 15.9 13.4ZM15.4334 11.2867H8.56671C8.50004 11.2867 8.44004 11.2733 8.37337 11.2467C8.2506 11.1939 8.15276 11.0961 8.10004 10.9733C8.07367 10.9135 8.06005 10.8488 8.06005 10.7833C8.06005 10.7179 8.07367 10.6532 8.10004 10.5933C8.12671 10.5333 8.16004 10.48 8.20671 10.4333L10.2334 8.40667C10.4267 8.21334 10.7467 8.21334 10.94 8.40667C11.1334 8.6 11.1334 8.92 10.94 9.11334L9.77337 10.2867H15.44C15.7134 10.2867 15.94 10.5133 15.94 10.7867C15.94 11.06 15.7134 11.2867 15.4334 11.2867Z" fill="#EBA775"/>
</svg>
